<svg xmlns="http://www.w3.org/2000/svg" viewBox="0 0 1280.19 103"><g id="Layer_2" data-name="Layer 2"><g id="Horizontal"><g id="Text"><g id="TALARYON"><path d="M64,14v89H46V14H0V0H118l-8,14Z"/><path d="M204.29,103V0h17.29V88.87h78.13L291.27,103Z"/><path d="M522,63H502l40,40H519L482,63H453v40H436V0h86l13,14V50Zm-4-19V19l-6-5H453V49h59Z"/><path d="M584.65,103V58.2L532.31,0h21.38L594,46,632.7,0h21L601.84,57.81V103Z"/><path d="M315.93,103h-17L355.28,0h18.46l57.32,103H412.12L364.44,13.22Z"/><path d="M84.93,103h-17L124.28,0h18.46l57.32,103H181.12L133.44,13.22Z"/><path d="M854,103h10V0H848V79L761,0H750V103h16V24Z"/><path d="M701.29,90.38a39.14,39.14,0,1,0-26.75-.06l-7.3,12.62a53.56,53.56,0,1,1,41.38.06Z"/></g><g id="STUDIOS"><path d="M929.34,8.12H887.41V24.94h37.7c5.33,0,8.55.91,10.51,2.87s3,5.68,3,11.16v6.74q0,8.26-2.89,11.21c-1.93,2-5.17,2.82-10.57,2.82H889.73c-5.44,0-9.13-.86-11.09-2.84s-2.83-5.6-2.83-11.08V44.08l9.28-2.32V51h44.08V33.64h-37.7c-5.44,0-8.64-1.1-10.56-3.08S878,24.85,878,19.37V14.16Q878,6,880.91,3c1.92-2,5.12-3,10.56-3h29.61Z"/><path d="M963.8,8.12V59.74h-9.86V8.12h-20.3L925.52,0h65.54V8.12Z"/><path d="M994.83,51.62V0h10.44V49.3L1007,51h39.44l1.74-1.74V0h10.44V51.62l-9.86,8.12h-44.08Z"/><path d="M1128.75,59.74V0h9.86V59.74Z"/><path d="M1270.91,8.12h-41.76V24.36h37.7c5.32,0,8.54,1.49,10.51,3.45s2.83,6.16,2.83,11.63v6.38c0,5.51-.85,9.14-2.78,11.1s-5.16,2.82-10.56,2.82h-35.38c-5.44,0-9.13-.86-11.09-2.84s-2.89-5-2.89-10.5V44.08l9.34-2.32V51h44.08v-18h-37.7c-5.44,0-8.64-.52-10.57-2.5s-2.77-5.36-2.77-10.84v-5.8c0-5.47.85-9,2.77-10.95s5.13-3,10.57-3h32.48c5.32,0,8.88,1,10.9,2.92s3,5,3,9.84V14.5l-8.64,2.32Z"/><path d="M1063.85,51.62h22c9.7,0,16.24-1.78,20.24-5.17s6-9,6-16.88q0-11.38-6.12-16.4c-4.08-3.34-10-5.05-19.55-5.05h-23.78V0h23.78a77.76,77.76,0,0,1,14.26,1.1A27,27,0,0,1,1110,4.64a26.2,26.2,0,0,1,9.09,10.43,31.92,31.92,0,0,1,3.31,14.5,34.11,34.11,0,0,1-3.26,15.09A25.68,25.68,0,0,1,1110,55.22a26.87,26.87,0,0,1-9.18,3.52,77.75,77.75,0,0,1-14.34,1H1054Z"/><path d="M1153.69,0h49.88l8.7,7V52.78l-8.12,7h-50.46l-7.54-7V7Zm1.16,49.88,1.74,1.74h44.08l2.32-1.74v-40l-1.74-1.74h-44.08l-2.32,1.74Z"/></g></g></g></g></svg>