<svg xmlns="http://www.w3.org/2000/svg" viewBox="0 0 1515.38 173.37"><g id="Layer_2" data-name="Layer 2"><g id="Horizontal"><g id="Text"><g id="TALARYON"><path d="M299.19,49.18v89h-18v-89h-46v-14h118l-8,14Z"/><path d="M439.49,138.18v-103h17.28v88.87H534.9l-8.44,14.13Z"/><path d="M757.19,98.18h-20l40,40h-23l-37-40h-29v40h-17v-103h86l13,14v36Zm-4-19v-25l-6-5h-59v35h59Z"/><path d="M819.84,138.18V93.39L767.5,35.18h21.39l40.33,46,38.67-46h21L837,93v45.18Z"/><path d="M551.12,138.18h-17l56.35-103h18.45l57.33,103h-19L599.63,48.41Z"/><path d="M320.12,138.18h-17l56.35-103h18.45l57.33,103H416.31L368.63,48.41Z"/><path d="M1089.19,138.18h10v-103h-16v79l-87-79h-11v103h16v-79Z"/><path d="M936.49,125.56a39.15,39.15,0,1,0-26.75-.06l-7.31,12.63a53.57,53.57,0,1,1,41.38.05Z"/></g><g id="STUDIOS"><path d="M1164.53,43.3H1122.6V60.12h37.7c5.33,0,8.55.91,10.51,2.88s3,5.68,3,11.15v6.74q0,8.28-2.89,11.22c-1.92,2-5.17,2.81-10.57,2.81h-35.38c-5.43,0-9.12-.86-11.09-2.84S1111,86.48,1111,81V79.26l9.28-2.32v9.28h44.08V68.82h-37.7c-5.43,0-8.63-1.09-10.56-3.08s-2.89-5.71-2.89-11.18V49.35q0-8.22,2.89-11.19c1.93-2,5.13-3,10.56-3h29.61Z"/><path d="M1199,43.3V94.92h-9.86V43.3h-20.3l-8.12-8.12h65.54V43.3Z"/><path d="M1230,86.8V35.18h10.44v49.3l1.74,1.74h39.44l1.74-1.74V35.18h10.44V86.8L1284,94.92h-44.08Z"/><path d="M1363.94,94.92V35.18h9.86V94.92Z"/><path d="M1506.1,43.3h-41.76V59.54H1502c5.32,0,8.55,1.49,10.51,3.46s2.83,6.15,2.83,11.62V81c0,5.52-.85,9.15-2.77,11.11s-5.17,2.81-10.57,2.81h-35.38c-5.44,0-9.13-.86-11.09-2.84s-2.89-5-2.89-10.5V79.26l9.34-2.32v9.28h44.08v-18h-37.7c-5.44,0-8.64-.51-10.56-2.5s-2.78-5.36-2.78-10.84V49.1c0-5.47.85-9,2.78-10.94s5.12-3,10.56-3h32.48c5.32,0,8.89,1,10.91,2.92s3,5,3,9.84v1.74L1506.1,52Z"/><path d="M1299,86.8h22c9.7,0,16.24-1.77,20.25-5.17s6-9,6-16.88q0-11.39-6.12-16.4c-4.07-3.34-10-5.05-19.55-5.05h-23.78V35.18h23.78a76.79,76.79,0,0,1,14.26,1.11,27,27,0,0,1,9.26,3.54,26.17,26.17,0,0,1,9.09,10.42,32,32,0,0,1,3.31,14.5,34.18,34.18,0,0,1-3.25,15.1,25.83,25.83,0,0,1-9.15,10.56,26.67,26.67,0,0,1-9.18,3.51,76.89,76.89,0,0,1-14.34,1h-32.48Z"/><path d="M1388.88,35.18h49.88l8.7,7V88l-8.12,7h-50.46l-7.54-7V42.14ZM1390,85.06l1.74,1.74h44.08l2.32-1.74V45l-1.74-1.74h-44.08L1390,45Z"/></g></g><path id="Logo" d="M102.92,0l10.22,23.6a71.43,71.43,0,0,1,32.33,116.45L92.6,18,39.72,140.05A71.43,71.43,0,0,1,72.05,23.6L82.27,0A92.61,92.61,0,0,0,48.32,173.37L92.6,71.12l44.27,102.25A92.61,92.61,0,0,0,102.92,0Z"/></g></g></svg>